<svg xmlns="http://www.w3.org/2000/svg" viewBox="0 0 800 600">
    <!-- Градиент для огненного шара -->
    <defs>
        <radialGradient id="fireballGradient" cx="50%" cy="50%" r="50%">
            <stop offset="0%" style="stop-color:#ffff00;stop-opacity:1" />
            <stop offset="50%" style="stop-color:#ff8c00;stop-opacity:0.8" />
            <stop offset="100%" style="stop-color:#ff4500;stop-opacity:0.6" />
        </radialGradient>
        
        <!-- Градиент для земли -->
        <linearGradient id="groundGradient" x1="0%" y1="0%" x2="0%" y2="100%">
            <stop offset="0%" style="stop-color:#8b4513;stop-opacity:1" />
            <stop offset="100%" style="stop-color:#654321;stop-opacity:1" />
        </linearGradient>
    </defs>

    <!-- Фон -->
    <rect width="800" height="600" fill="#e6f3ff"/>

    <!-- Земля -->
    <rect x="0" y="500" width="800" height="100" fill="url(#groundGradient)"/>

    <!-- Зоны поражения (концентрические круги) -->
    <circle cx="400" cy="300" r="350" fill="none" stroke="#ffcccc" stroke-width="2" stroke-dasharray="5,5"/>
    <text x="710" y="300" fill="#cc0000" font-size="14">Легкие ожоги</text>
    
    <circle cx="400" cy="300" r="280" fill="none" stroke="#ff9999" stroke-width="2" stroke-dasharray="5,5"/>
    <text x="640" y="250" fill="#cc0000" font-size="14">Средние ожоги</text>
    
    <circle cx="400" cy="300" r="220" fill="none" stroke="#ff6666" stroke-width="2" stroke-dasharray="5,5"/>
    <text x="580" y="200" fill="#cc0000" font-size="14">Тяжелые ожоги</text>
    
    <circle cx="400" cy="300" r="160" fill="none" stroke="#ff0000" stroke-width="2" stroke-dasharray="5,5"/>
    <text x="520" y="150" fill="#cc0000" font-size="14">Летальный исход</text>

    <!-- Огненный шар -->
    <circle cx="400" cy="300" r="100" fill="url(#fireballGradient)"/>

    <!-- Размерные линии и обозначения -->
    <!-- Диаметр -->
    <line x1="300" y1="300" x2="500" y2="300" stroke="black" stroke-width="1"/>
    <line x1="300" y1="295" x2="300" y2="305" stroke="black" stroke-width="1"/>
    <line x1="500" y1="295" x2="500" y2="305" stroke="black" stroke-width="1"/>
    <text x="380" y="290" font-size="14">D_eff</text>

    <!-- Высота -->
    <line x1="400" y1="200" x2="400" y2="400" stroke="black" stroke-width="1"/>
    <line x1="395" y1="200" x2="405" y2="200" stroke="black" stroke-width="1"/>
    <line x1="395" y1="400" x2="405" y2="400" stroke="black" stroke-width="1"/>
    <text x="410" y="300" font-size="14">H</text>

    <!-- Расстояние до точки -->
    <line x1="400" y1="300" x2="600" y2="400" stroke="#666666" stroke-width="1" stroke-dasharray="5,5"/>
    <text x="480" y="370" font-size="14">r</text>

    <!-- Точка наблюдения -->
    <circle cx="600" cy="400" r="4" fill="#666666"/>
    <text x="610" y="405" font-size="14">Точка наблюдения</text>

    <!-- Параметры в точке -->
    <text x="610" y="425" font-size="12">q - интенсивность излучения</text>
    <text x="610" y="440" font-size="12">τ - пропускание атмосферы</text>
    <text x="610" y="455" font-size="12">Pr - пробит-функция</text>

    <!-- Заголовок -->
    <text x="250" y="50" font-size="24" font-weight="bold">Модель огненного шара</text>
    <text x="250" y="80" font-size="16">Основные параметры и зоны поражения</text>
</svg>