<svg xmlns="http://www.w3.org/2000/svg" viewBox="0 0 1000 800">
    <!-- Заголовки блоков -->
    <text x="100" y="50" font-size="24" font-weight="bold">Обозначения:</text>
    <text x="600" y="50" font-size="24" font-weight="bold">Основные параметры:</text>

    <!-- Обозначения -->
    <g transform="translate(100, 100)">
        <!-- Центр взрыва -->
        <circle cx="20" cy="0" r="8" fill="red"/>
        <text x="50" y="5" font-size="18">Центр взрыва</text>

        <!-- Облако ТВС -->
        <circle cx="20" cy="40" r="12" fill="black" stroke="#FFA500" stroke-width="3"/>
        <text x="50" y="45" font-size="18">Облако ТВС</text>

        <!-- Зоны поражения -->
        <line x1="0" y1="80" x2="30" y2="80" stroke="#FF4444" stroke-width="2" stroke-dasharray="5,5"/>
        <text x="50" y="85" font-size="18">Зона сильных разрушений (>70 кПа)</text>

        <line x1="0" y1="120" x2="30" y2="120" stroke="#4444FF" stroke-width="2" stroke-dasharray="5,5"/>
        <text x="50" y="125" font-size="18">Зона средних повреждений (28-70 кПа)</text>

        <line x1="0" y1="160" x2="30" y2="160" stroke="#44FF44" stroke-width="2" stroke-dasharray="5,5"/>
        <text x="50" y="165" font-size="18">Зона слабых повреждений (14 кПа)</text>
    </g>

    <!-- Параметры -->
    <g transform="translate(600, 100)">
        <text x="0" y="5" font-size="18">M_г - масса горючего вещества (кг)</text>
        <text x="0" y="35" font-size="18">q_г - удельная теплота сгорания (кДж/кг)</text>
        <text x="0" y="65" font-size="18">β - коэффициент участия во взрыве</text>
        <text x="0" y="95" font-size="18">k_з - коэффициент загроможденности</text>
        <text x="0" y="125" font-size="18">P_0 = 101325 Па - атм. давление</text>
        <text x="0" y="155" font-size="18">c_0 = 340 м/с - скорость звука</text>
    </g>

    <!-- Визуализация зон -->
    <g transform="translate(500, 400)">
        <!-- Облако ТВС -->
        <circle cx="0" cy="0" r="80" fill="black" stroke="#FFA500" stroke-width="4"/>
        
        <!-- Центр взрыва -->
        <circle cx="0" cy="0" r="6" fill="red"/>

        <!-- Линия расстояния -->
        <line x1="0" y1="0" x2="300" y2="0" stroke="black" stroke-width="1"/>
        <text x="150" y="20" text-anchor="middle" font-size="18">r (расстояние)</text>

        <!-- Зоны поражения -->
        <path d="M 80,0 Q 200,-50 300,-30" stroke="#FF4444" stroke-width="2" stroke-dasharray="5,5" fill="none"/>
        <path d="M 80,0 Q 250,-30 350,-10" stroke="#4444FF" stroke-width="2" stroke-dasharray="5,5" fill="none"/>
        <path d="M 80,0 Q 300,-10 400,10" stroke="#44FF44" stroke-width="2" stroke-dasharray="5,5" fill="none"/>
    </g>

    <!-- Основные формулы -->
    <g transform="translate(100, 600)">
        <text x="0" y="0" font-size="24" font-weight="bold">Основные формулы:</text>
        
        <!-- Энергозапас -->
        <text x="0" y="40" font-size="18">E = M_г · q_г · β · k_з</text>
        
        <!-- Безразмерное расстояние -->
        <text x="0" y="80" font-size="18">R̄ = r / (E/P_0)^(1/3)</text>
        
        <!-- Безразмерное давление -->
        <text x="0" y="120" font-size="18">P̄ = (V_г/c_0)² · ((σ-1)/σ) · (0.83/R̄ - 0.14/R̄²)</text>
        
        <!-- Пробит-функция -->
        <text x="0" y="160" font-size="18">Pr = 5 - 0.26·ln[((17500/ΔP)^8.4) + ((290/I)^9.3)]</text>
    </g>
</svg>