<?xml version="1.0" encoding="UTF-8"?>
<svg viewBox="0 0 1000 800" xmlns="http://www.w3.org/2000/svg">
    <!-- Основной контур резервуара -->
    <rect x="50" y="100" width="400" height="400" fill="none" stroke="black" stroke-width="3"/>
    
    <!-- Жидкость -->
    <rect x="50" y="250" width="400" height="250" fill="#ADD8E6" fill-opacity="0.5"/>
    
    <!-- Газовая подушка -->
    <path d="M 50,100 
             Q 100,150 150,130 
             Q 200,110 250,140 
             Q 300,170 350,130 
             Q 400,90 450,100" 
          fill="#E6E6FA" fill-opacity="0.3" stroke="none"/>
    <path d="M 50,130 
             Q 100,180 150,160 
             Q 200,140 250,170 
             Q 300,200 350,160 
             Q 400,120 450,130" 
          fill="#E6E6FA" fill-opacity="0.3" stroke="none"/>
    
    <!-- Отверстие истечения -->
    <circle cx="250" cy="450" r="15" fill="white" stroke="black" stroke-width="2"/>
    
    <!-- Стрелка истечения -->
    <path d="M 250,465 L 250,520 L 230,500 M 250,520 L 270,500" 
          fill="none" stroke="#FF4444" stroke-width="2"/>
    
    <!-- Размерные линии и обозначения -->
    <!-- Высота жидкости -->
    <line x1="20" y1="250" x2="20" y2="500" stroke="black" stroke-width="1" stroke-dasharray="5,5"/>
    <line x1="15" y1="250" x2="25" y2="250" stroke="black" stroke-width="1"/>
    <line x1="15" y1="500" x2="25" y2="500" stroke="black" stroke-width="1"/>
    <text x="0" y="375" font-family="Arial" font-size="20" text-anchor="middle">h₀</text>
    
    <!-- Высота газовой подушки -->
    <line x1="20" y1="100" x2="20" y2="250" stroke="black" stroke-width="1" stroke-dasharray="5,5"/>
    <line x1="15" y1="100" x2="25" y2="100" stroke="black" stroke-width="1"/>
    <text x="0" y="175" font-family="Arial" font-size="20" text-anchor="middle">h_газа</text>
    
    <!-- Диаметр резервуара -->
    <line x1="50" y1="550" x2="450" y2="550" stroke="black" stroke-width="1" stroke-dasharray="5,5"/>
    <line x1="50" y1="545" x2="50" y2="555" stroke="black" stroke-width="1"/>
    <line x1="450" y1="545" x2="450" y2="555" stroke="black" stroke-width="1"/>
    <text x="250" y="570" font-family="Arial" font-size="20" text-anchor="middle">D_рез</text>
    
    <!-- Диаметр отверстия -->
    <text x="300" y="455" font-family="Arial" font-size="20">d_отв</text>
    
    <!-- Давление -->
    <text x="150" y="150" font-family="Arial" font-size="20">P_изб</text>
    
    <!-- Массовый расход -->
    <text x="300" y="500" font-family="Arial" font-size="20">Q</text>

    <!-- Описание параметров -->
    <rect x="500" y="100" width="450" height="600" fill="#f8f9fa" stroke="#dee2e6" stroke-width="1"/>
    
    <text x="520" y="140" font-family="Arial" font-size="20" font-weight="bold">Параметры модели:</text>
    
    <text x="520" y="180" font-family="Arial" font-size="18" font-weight="bold">Геометрические параметры:</text>
    <text x="520" y="210" font-family="Arial" font-size="16">d_отв - диаметр отверстия разгерметизации, мм</text>
    <text x="520" y="235" font-family="Arial" font-size="16">D_рез - диаметр резервуара, м</text>
    <text x="520" y="260" font-family="Arial" font-size="16">h₀ - начальная высота жидкости, м</text>
    <text x="520" y="285" font-family="Arial" font-size="16">h_газа - высота газовой подушки, м</text>
    
    <text x="520" y="325" font-family="Arial" font-size="18" font-weight="bold">Физические параметры:</text>
    <text x="520" y="355" font-family="Arial" font-size="16">P_изб - начальное избыточное давление, МПа</text>
    <text x="520" y="380" font-family="Arial" font-size="16">ρ - плотность жидкости, кг/м³</text>
    <text x="520" y="405" font-family="Arial" font-size="16">Q - массовый расход истечения, кг/с</text>
    <text x="520" y="430" font-family="Arial" font-size="16">μ - коэффициент расхода (0.61)</text>
    <text x="520" y="455" font-family="Arial" font-size="16">k - показатель адиабаты газа (1.4)</text>
    
    <text x="520" y="495" font-family="Arial" font-size="18" font-weight="bold">Основные уравнения:</text>
    <text x="520" y="525" font-family="Arial" font-size="16">1. v = √(2*(ΔP/ρ + gh)) - скорость истечения</text>
    <text x="520" y="550" font-family="Arial" font-size="16">2. Q = μAv*ρ - массовый расход</text>
    <text x="520" y="575" font-family="Arial" font-size="16">3. P₁V₁ᵏ = P₂V₂ᵏ - адиабата газовой подушки</text>
    <text x="520" y="600" font-family="Arial" font-size="16">4. dm/dt = Q - изменение массы</text>
    
    <!-- Легенда -->
    <rect x="520" y="640" width="20" height="20" fill="#ADD8E6" fill-opacity="0.5"/>
    <text x="550" y="655" font-family="Arial" font-size="16">- жидкость</text>
    
    <rect x="520" y="670" width="20" height="20" fill="#E6E6FA" fill-opacity="0.3"/>
    <text x="550" y="685" font-family="Arial" font-size="16">- газ</text>
</svg>